<mxfile host="app.diagrams.net" modified="2022-12-08T11:55:31.725Z" agent="5.0 (Windows NT 10.0; Win64; x64) AppleWebKit/537.36 (KHTML, like Gecko) Chrome/108.0.0.0 Safari/537.36" version="20.6.0" etag="0NTmaBl1JhqfMAF7o9cI" type="github">
  <diagram id="83tXiCfVoWJlDxzBxbVW" name="Страница 1">
    <mxGraphModel dx="1422" dy="786" grid="1" gridSize="10" guides="1" tooltips="1" connect="1" arrows="1" fold="1" page="1" pageScale="1" pageWidth="827" pageHeight="1169" math="0" shadow="0">
      <root>
        <mxCell id="0" />
        <mxCell id="1" parent="0" />
        <mxCell id="Xocvchc25zN1rxt91MTS-1" value="&lt;p style=&quot;line-height: 120%;&quot;&gt;&lt;br&gt;&lt;/p&gt;" style="rounded=0;whiteSpace=wrap;html=1;align=left;" vertex="1" parent="1">
          <mxGeometry x="580" y="160" width="150" height="270" as="geometry" />
        </mxCell>
        <mxCell id="Xocvchc25zN1rxt91MTS-2" value="&lt;p&gt;&lt;font style=&quot;font-size: 12px; font-weight: normal;&quot;&gt;Deployment&lt;/font&gt;&lt;/p&gt;" style="text;strokeColor=none;fillColor=none;html=1;fontSize=24;fontStyle=1;verticalAlign=middle;align=center;" vertex="1" parent="1">
          <mxGeometry x="605" y="390" width="100" height="40" as="geometry" />
        </mxCell>
        <mxCell id="Xocvchc25zN1rxt91MTS-3" value="" style="rounded=0;whiteSpace=wrap;html=1;fontSize=12;" vertex="1" parent="1">
          <mxGeometry x="590" y="170" width="130" height="230" as="geometry" />
        </mxCell>
        <mxCell id="Xocvchc25zN1rxt91MTS-4" value="&lt;span style=&quot;font-weight: normal;&quot;&gt;&lt;font style=&quot;font-size: 12px;&quot;&gt;Replica set&lt;/font&gt;&lt;/span&gt;" style="text;strokeColor=none;fillColor=none;html=1;fontSize=24;fontStyle=1;verticalAlign=middle;align=center;" vertex="1" parent="1">
          <mxGeometry x="605" y="360" width="100" height="40" as="geometry" />
        </mxCell>
        <mxCell id="Xocvchc25zN1rxt91MTS-5" value="Pod" style="rounded=0;whiteSpace=wrap;html=1;fontSize=12;" vertex="1" parent="1">
          <mxGeometry x="595" y="200" width="120" height="60" as="geometry" />
        </mxCell>
        <mxCell id="Xocvchc25zN1rxt91MTS-6" value="Pod" style="rounded=0;whiteSpace=wrap;html=1;fontSize=12;" vertex="1" parent="1">
          <mxGeometry x="595" y="280" width="120" height="60" as="geometry" />
        </mxCell>
        <mxCell id="Xocvchc25zN1rxt91MTS-7" value="Expose Service" style="rounded=0;whiteSpace=wrap;html=1;fontSize=12;" vertex="1" parent="1">
          <mxGeometry x="420" y="250" width="120" height="60" as="geometry" />
        </mxCell>
        <mxCell id="Xocvchc25zN1rxt91MTS-8" value="" style="endArrow=classic;html=1;rounded=0;fontSize=12;exitX=1;exitY=0.5;exitDx=0;exitDy=0;entryX=0;entryY=0.444;entryDx=0;entryDy=0;entryPerimeter=0;" edge="1" parent="1" source="Xocvchc25zN1rxt91MTS-7" target="Xocvchc25zN1rxt91MTS-1">
          <mxGeometry width="50" height="50" relative="1" as="geometry">
            <mxPoint x="490" y="370" as="sourcePoint" />
            <mxPoint x="540" y="320" as="targetPoint" />
          </mxGeometry>
        </mxCell>
        <mxCell id="Xocvchc25zN1rxt91MTS-9" value="Minikube Port Forward" style="rounded=0;whiteSpace=wrap;html=1;fontSize=12;" vertex="1" parent="1">
          <mxGeometry x="260" y="250" width="120" height="60" as="geometry" />
        </mxCell>
        <mxCell id="Xocvchc25zN1rxt91MTS-10" value="" style="endArrow=classic;html=1;rounded=0;fontSize=12;exitX=1;exitY=0.5;exitDx=0;exitDy=0;entryX=0;entryY=0.5;entryDx=0;entryDy=0;" edge="1" parent="1" source="Xocvchc25zN1rxt91MTS-9" target="Xocvchc25zN1rxt91MTS-7">
          <mxGeometry width="50" height="50" relative="1" as="geometry">
            <mxPoint x="490" y="360" as="sourcePoint" />
            <mxPoint x="540" y="310" as="targetPoint" />
          </mxGeometry>
        </mxCell>
        <mxCell id="Xocvchc25zN1rxt91MTS-11" value="PC" style="rounded=0;whiteSpace=wrap;html=1;fontSize=12;" vertex="1" parent="1">
          <mxGeometry x="100" y="250" width="120" height="60" as="geometry" />
        </mxCell>
        <mxCell id="Xocvchc25zN1rxt91MTS-12" value="" style="endArrow=classic;html=1;rounded=0;fontSize=12;exitX=1;exitY=0.5;exitDx=0;exitDy=0;" edge="1" parent="1" source="Xocvchc25zN1rxt91MTS-11">
          <mxGeometry width="50" height="50" relative="1" as="geometry">
            <mxPoint x="490" y="360" as="sourcePoint" />
            <mxPoint x="260" y="280" as="targetPoint" />
          </mxGeometry>
        </mxCell>
      </root>
    </mxGraphModel>
  </diagram>
</mxfile>
